name analog
datacolumns 19
datarows 42
range 0.327 0.34750000000000003
endheader
time	ground_force_vx	ground_force_vy	ground_force_vz	ground_force_px	ground_force_py	ground_force_pz	l_ground_force_vx	l_ground_force_vy	l_ground_force_vz	l_ground_force_px	l_ground_force_py	l_ground_force_pz	ground_torque_x	ground_torque_y	ground_torque_z	l_ground_torque_x	l_ground_torque_y	l_ground_torque_z
0.327	-0.0	-0.0	-0.0	-0.6332426071166992	4.400020122528076	-322.5227355957031	1.903989553451538	-3.091259002685547	-333.9505920410156	-0.0	-0.0	-0.0	-0.0	-0.0	-0.0	88319.15625	-7932.73046875	-2709.707763671875
0.3275	-0.0	-0.0	-0.0	-0.3895768821239471	4.441786766052246	-326.3610534667969	2.386347770690918	-2.7144014835357666	-334.6736145019531	-0.0	-0.0	-0.0	-0.0	-0.0	-0.0	88646.4609375	-8303.3056640625	-2490.771484375
0.328	-0.0	-0.0	-0.0	-0.770096480846405	4.902172088623047	-324.3854064941406	2.95100474357605	-2.2819106578826904	-333.7889404296875	-0.0	-0.0	-0.0	-0.0	-0.0	-0.0	88472.21875	-8272.4736328125	-2328.025390625
0.3285	-0.0	-0.0	-0.0	-1.2206964492797852	5.380670547485352	-324.1263427734375	3.40366792678833	-1.961523532867432	-334.23016357421875	-0.0	-0.0	-0.0	-0.0	-0.0	-0.0	88652.828125	-8330.3115234375	-2252.544677734375
0.329	-0.0	-0.0	-0.0	-0.962062120437622	5.301228046417236	-325.90887451171875	3.5157036781311035	-1.9242151975631716	-331.86016845703125	-0.0	-0.0	-0.0	-0.0	-0.0	-0.0	88465.0625	-8263.5830078125	-1999.590576171875
0.3295	-0.0	-0.0	-0.0	-0.9384896755218506	5.02783727645874	-325.2787475585937	3.60435152053833	-1.5763816833496094	-332.81756591796875	-0.0	-0.0	-0.0	-0.0	-0.0	-0.0	88373.5390625	-8463.4951171875	-1996.292724609375
0.33	-0.0	-0.0	-0.0	-0.3798789083957672	4.94527006149292	-326.3382568359375	3.528644800186157	-1.4229968786239624	-332.1725769042969	-0.0	-0.0	-0.0	-0.0	-0.0	-0.0	88242.4140625	-8607.8857421875	-1926.0145263671875
0.3305	-0.0	-0.0	-0.0	-0.1886605471372604	4.433629989624023	-326.6509094238281	4.136476039886475	-0.9059656858444214	-330.7762145996094	-0.0	-0.0	-0.0	-0.0	-0.0	-0.0	87814.6015625	-8755.5107421875	-1921.1815185546875
0.331	-0.0	-0.0	-0.0	0.265784740447998	4.690718173980713	-326.0264892578125	4.625364780426025	-0.0985763072967529	-330.3785095214844	-0.0	-0.0	-0.0	-0.0	-0.0	-0.0	88092.34375	-8771.7177734375	-1750.358154296875
0.3315	-0.0	-0.0	-0.0	1.026544451713562	4.411332130432129	-327.97235107421875	5.256490707397461	0.8727395534515381	-330.4749755859375	-0.0	-0.0	-0.0	-0.0	-0.0	-0.0	87931.4140625	-8932.9541015625	-1297.2344970703125
0.332	-0.0	-0.0	-0.0	1.840059518814087	4.434052467346191	-328.678466796875	6.320894718170166	1.2918297052383425	-329.5108642578125	-0.0	-0.0	-0.0	-0.0	-0.0	-0.0	88197.1640625	-8874.341796875	-1148.1558837890625
0.3325	-0.0	-0.0	-0.0	2.352912187576294	4.334100723266602	-328.36895751953125	6.897166728973389	1.5014686584472656	-330.29742431640625	-0.0	-0.0	-0.0	-0.0	-0.0	-0.0	87954.421875	-9082.3955078125	-877.1862182617188
0.333	-0.0	-0.0	-0.0	3.400909423828125	3.776948928833008	-327.4857177734375	7.329714298248291	2.042366504669189	-328.9008178710937	-0.0	-0.0	-0.0	-0.0	-0.0	-0.0	87956.859375	-9000.5302734375	-765.533447265625
0.3335	-0.0	-0.0	-0.0	3.9809000492095943	3.164604425430298	-328.3244323730469	7.618462562561035	1.799638748168945	-328.9874572753906	-0.0	-0.0	-0.0	-0.0	-0.0	-0.0	87747.6640625	-9064.720703125	-728.1395874023438
0.334	-0.0	-0.0	-0.0	4.4605255126953125	2.751311779022217	-328.73004150390625	7.362995147705078	1.921319365501404	-326.5883483886719	-0.0	-0.0	-0.0	-0.0	-0.0	-0.0	87293.546875	-9449.765625	-621.0908203125
0.3345	-0.0	-0.0	-0.0	4.749938488006592	2.2401821613311768	-328.1513977050781	7.540416717529297	2.0746610164642334	-324.4544982910156	-0.0	-0.0	-0.0	-0.0	-0.0	-0.0	87167.7421875	-9309.7802734375	-557.7271118164062
0.335	-0.0	-0.0	-0.0	4.7835798263549805	1.8163652420043943	-330.6139831542969	7.619530200958252	2.439589500427246	-325.32440185546875	-0.0	-0.0	-0.0	-0.0	-0.0	-0.0	86966.125	-9240.6689453125	-439.7200012207031
0.3355	-0.0	-0.0	-0.0	5.327876567840576	2.003801107406616	-329.1147155761719	8.118528366088867	2.2628719806671143	-325.0121154785156	-0.0	-0.0	-0.0	-0.0	-0.0	-0.0	86695.4921875	-9072.9931640625	-457.0273132324219
0.336	-0.0	-0.0	-0.0	5.352630615234375	1.6558152437210083	-327.2635192871094	8.216401100158691	2.01018500328064	-323.13299560546875	-0.0	-0.0	-0.0	-0.0	-0.0	-0.0	86123.1640625	-9142.28125	-360.8839416503906
0.3365	-0.0	-0.0	-0.0	5.271826267242432	1.2817981243133545	-324.623046875	8.44015121459961	2.4393763542175293	-322.4495849609375	-0.0	-0.0	-0.0	-0.0	-0.0	-0.0	86155.6796875	-8955.6171875	-157.2154998779297
0.337	-0.0	-0.0	-0.0	5.284483909606934	1.218733310699463	-324.1872863769531	8.283951759338379	2.140641212463379	-320.17205810546875	-0.0	-0.0	-0.0	-0.0	-0.0	-0.0	85494.7109375	-9175.3701171875	-54.45081329345703
0.3375	-0.0	-0.0	-0.0	5.339430809020996	1.488840937614441	-322.5145568847656	8.967650413513184	2.480834007263184	-318.5906677246094	-0.0	-0.0	-0.0	-0.0	-0.0	-0.0	84997.1640625	-8963.4501953125	-13.944976806640623
0.338	-0.0	-0.0	-0.0	5.599480628967285	1.2404835224151611	-322.1824035644531	9.47879695892334	2.623252391815185	-318.8864440917969	-0.0	-0.0	-0.0	-0.0	-0.0	-0.0	84696.0	-9006.876953125	203.69021606445312
0.3385	-0.0	-0.0	-0.0	5.963480949401856	1.4603335857391355	-320.25244140625	9.450841903686523	2.6630380153656006	-316.3843078613281	-0.0	-0.0	-0.0	-0.0	-0.0	-0.0	84391.6796875	-8820.9462890625	404.4171447753906
0.339	-0.0	-0.0	-0.0	5.956596374511719	1.5218746662139893	-316.77398681640625	10.338242530822754	2.8806397914886475	-315.6598205566406	-0.0	-0.0	-0.0	-0.0	-0.0	-0.0	84206.6328125	-8946.52734375	496.3919372558594
0.3395	-0.0	-0.0	-0.0	6.271381855010986	1.0899040699005127	-315.854248046875	10.556583404541016	3.084866523742676	-315.01470947265625	-0.0	-0.0	-0.0	-0.0	-0.0	-0.0	83641.5078125	-8880.708984375	473.9774169921875
0.34	-0.0	-0.0	-0.0	6.100804805755615	1.466511607170105	-313.3506774902344	10.95179557800293	3.0510671138763428	-311.6575622558594	-0.0	-0.0	-0.0	-0.0	-0.0	-0.0	83128.0234375	-8649.2783203125	720.5009155273438
0.3405	-0.0	-0.0	-0.0	6.607161045074463	1.1531171798706057	-309.73883056640625	11.0545072555542	3.1995227336883545	-307.8729248046875	-0.0	-0.0	-0.0	-0.0	-0.0	-0.0	82405.890625	-8760.7021484375	804.8184814453125
0.341	-0.0	-0.0	-0.0	6.869209289550781	1.0747915506362915	-308.6003723144531	11.374870300292969	2.9831345081329346	-307.0185852050781	-0.0	-0.0	-0.0	-0.0	-0.0	-0.0	81635.8125	-8716.9365234375	834.5852661132812
0.3415	-0.0	-0.0	-0.0	7.027822017669678	0.8863930106163025	-305.1280212402344	11.74429702758789	3.3365464210510254	-304.24676513671875	-0.0	-0.0	-0.0	-0.0	-0.0	-0.0	81379.7265625	-8558.2607421875	1077.1053466796875
0.342	-0.0	-0.0	-0.0	7.572294235229492	0.7629032135009766	-302.0466613769531	11.995565414428713	3.425021886825561	-302.83209228515625	-0.0	-0.0	-0.0	-0.0	-0.0	-0.0	80853.21875	-8463.8466796875	1141.6307373046875
0.3425	-0.0	-0.0	-0.0	7.741788387298584	0.4414460957050323	-300.47882080078125	12.400026321411133	3.440211296081543	-303.08074951171875	-0.0	-0.0	-0.0	-0.0	-0.0	-0.0	80669.2890625	-8764.818359375	1343.11865234375
0.343	-0.0	-0.0	-0.0	8.31596565246582	0.4921799898147583	-297.009033203125	12.592920303344728	3.4943442344665527	-300.0577697753906	-0.0	-0.0	-0.0	-0.0	-0.0	-0.0	80285.6328125	-8605.8642578125	1438.845703125
0.3435	-0.0	-0.0	-0.0	9.332119941711426	0.2831166386604309	-296.1033020019531	12.897817611694336	3.7787137031555176	-298.9349975585937	-0.0	-0.0	-0.0	-0.0	-0.0	-0.0	79924.578125	-8516.0380859375	1427.5853271484375
0.34400000000000003	-0.0	-0.0	-0.0	9.309797286987305	-0.213283509016037	-294.3376770019531	13.097671508789062	3.766446590423584	-296.6288146972656	-0.0	-0.0	-0.0	-0.0	-0.0	-0.0	79501.53125	-8412.29296875	1636.523193359375
0.34450000000000003	-0.0	-0.0	-0.0	9.529339790344238	-0.4267222881317138	-291.30938720703125	13.129196166992188	3.9020779132843018	-296.1435241699219	-0.0	-0.0	-0.0	-0.0	-0.0	-0.0	78949.1953125	-8261.2578125	1517.846435546875
0.34500000000000003	-0.0	-0.0	-0.0	8.953843116760254	-0.6942539215087891	-288.8821105957031	12.666873931884766	3.618635892868042	-294.5362243652344	-0.0	-0.0	-0.0	-0.0	-0.0	-0.0	78925.9140625	-8089.8740234375	1600.091796875
0.34550000000000003	-0.0	-0.0	-0.0	8.616060256958008	-0.9638635516166688	-286.5602722167969	12.846671104431152	4.576407432556152	-292.3955078125	-0.0	-0.0	-0.0	-0.0	-0.0	-0.0	78251.234375	-8080.5166015625	1618.3907470703125
0.34600000000000003	-0.0	-0.0	-0.0	9.153339385986328	-1.3016446828842163	-283.2435607910156	13.057109832763672	4.557770252227783	-290.9888610839844	-0.0	-0.0	-0.0	-0.0	-0.0	-0.0	77459.0703125	-8000.21533203125	1624.04296875
0.34650000000000003	-0.0	-0.0	-0.0	8.990474700927734	-1.1954578161239624	-280.0661926269531	12.86306381225586	4.23944091796875	-288.3208923339844	-0.0	-0.0	-0.0	-0.0	-0.0	-0.0	77026.3046875	-7964.39306640625	1683.69140625
0.34700000000000003	-0.0	-0.0	-0.0	9.241373062133787	-1.3541558980941772	-277.24627685546875	13.431777954101562	4.504405975341797	-287.5622253417969	-0.0	-0.0	-0.0	-0.0	-0.0	-0.0	76310.1640625	-8014.46630859375	1808.418212890625
0.34750000000000003	-0.0	-0.0	-0.0	9.296009063720703	-1.2478256225585938	-274.14208984375	13.25322151184082	3.903311252593994	-286.7246398925781	-0.0	-0.0	-0.0	-0.0	-0.0	-0.0	75973.828125	-7955.73046875	1743.024169921875
